<svg width="550" height="550" viewBox="0 0 550 550" fill="none" xmlns="http://www.w3.org/2000/svg">
<mask id="path-1-inside-1_1103_228" fill="white">
<path d="M550 550C550 477.773 535.774 406.253 508.134 339.524C480.494 272.795 439.981 212.163 388.909 161.091C337.836 110.019 277.205 69.5063 210.476 41.8662C143.747 14.2262 72.227 -3.15714e-06 0 0V220C43.3362 220 86.248 228.536 126.286 245.12C166.323 261.704 202.702 286.011 233.345 316.655C263.989 347.298 288.296 383.677 304.88 423.714C321.464 463.752 330 506.664 330 550H550Z"/>
</mask>
<path d="M550 550C550 477.773 535.774 406.253 508.134 339.524C480.494 272.795 439.981 212.163 388.909 161.091C337.836 110.019 277.205 69.5063 210.476 41.8662C143.747 14.2262 72.227 -3.15714e-06 0 0V220C43.3362 220 86.248 228.536 126.286 245.12C166.323 261.704 202.702 286.011 233.345 316.655C263.989 347.298 288.296 383.677 304.88 423.714C321.464 463.752 330 506.664 330 550H550Z" stroke="#96CDFA" stroke-width="400" mask="url(#path-1-inside-1_1103_228)"/>
</svg>
