<svg width="34" height="34" viewBox="0 0 34 34" fill="none" xmlns="http://www.w3.org/2000/svg">
<path d="M25.5 17V24.0833C25.5 26.4305 21.6944 28.3333 17 28.3333C12.3056 28.3333 8.5 26.4305 8.5 24.0833V17M25.5 17V9.91663M25.5 17C25.5 19.3472 21.6944 21.25 17 21.25C12.3056 21.25 8.5 19.3472 8.5 17M25.5 9.91663C25.5 7.56942 21.6944 5.66663 17 5.66663C12.3056 5.66663 8.5 7.56942 8.5 9.91663M25.5 9.91663C25.5 12.2638 21.6944 14.1666 17 14.1666C12.3056 14.1666 8.5 12.2638 8.5 9.91663M8.5 17V9.91663" stroke="#2C2D2E" stroke-width="2" stroke-linecap="round" stroke-linejoin="round"/>
</svg>
