<svg width="25" height="25" viewBox="0 0 25 25" fill="none" xmlns="http://www.w3.org/2000/svg">
<path d="M10.4169 5.20832H8.54191C7.37513 5.20832 6.79131 5.20832 6.34566 5.43539C5.95366 5.63513 5.63518 5.95361 5.43544 6.34561C5.20837 6.79126 5.20837 7.37508 5.20837 8.54186V16.4585C5.20837 17.6253 5.20837 18.2084 5.43544 18.654C5.63518 19.046 5.95366 19.3651 6.34566 19.5648C6.79088 19.7917 7.37399 19.7917 8.53849 19.7917H16.4616C17.6261 19.7917 18.2084 19.7917 18.6536 19.5648C19.0456 19.3651 19.3651 19.0457 19.5649 18.6537C19.7917 18.2085 19.7917 17.626 19.7917 16.4615V14.5833M20.8334 9.37499V4.16666M20.8334 4.16666H15.625M20.8334 4.16666L13.5417 11.4583" stroke="white" stroke-width="2" stroke-linecap="round" stroke-linejoin="round"/>
</svg>
