<svg width="34" height="34" viewBox="0 0 34 34" fill="none" xmlns="http://www.w3.org/2000/svg">
<path d="M26.9167 15.5833C26.9167 10.1065 22.4768 5.66663 17 5.66663C11.5232 5.66663 7.08333 10.1065 7.08333 15.5833M22.6667 20.5416V23.375C22.6667 24.0332 22.6667 24.3624 22.7211 24.636C22.9447 25.76 23.8233 26.6391 24.9473 26.8627C25.221 26.9171 25.5501 26.9171 26.2083 26.9171C26.8666 26.9171 27.1957 26.9171 27.4694 26.8627C28.5934 26.6391 29.4718 25.76 29.6954 24.636C29.7498 24.3624 29.75 24.0332 29.75 23.375V20.5416C29.75 19.8834 29.7498 19.5536 29.6954 19.2799C29.4718 18.156 28.5934 17.278 27.4694 17.0544C27.1957 17 26.8666 17 26.2083 17C25.5501 17 25.221 17 24.9473 17.0544C23.8233 17.278 22.9447 18.156 22.7211 19.2799C22.6667 19.5536 22.6667 19.8834 22.6667 20.5416ZM11.3333 20.5416V23.375C11.3333 24.0332 11.3331 24.3624 11.2787 24.636C11.0551 25.76 10.1767 26.6391 9.05269 26.8627C8.779 26.9171 8.44998 26.9171 7.79173 26.9171C7.13347 26.9171 6.80434 26.9171 6.53064 26.8627C5.40668 26.6391 4.52801 25.76 4.30444 24.636C4.25 24.3624 4.25 24.0332 4.25 23.375V20.5416C4.25 19.8834 4.25 19.5536 4.30444 19.2799C4.52801 18.156 5.40668 17.278 6.53064 17.0544C6.80434 17 7.13347 17 7.79173 17C8.44999 17 8.779 17 9.05269 17.0544C10.1767 17.278 11.0551 18.156 11.2787 19.2799C11.3331 19.5536 11.3333 19.8834 11.3333 20.5416Z" stroke="#2C2D2E" stroke-width="2" stroke-linecap="round" stroke-linejoin="round"/>
</svg>
