<svg width="34" height="34" viewBox="0 0 34 34" fill="none" xmlns="http://www.w3.org/2000/svg">
<path d="M4.25007 24.0835C4.25 23.992 4.25 23.8976 4.25 23.8003V10.2003C4.25 8.61348 4.25 7.81948 4.55881 7.2134C4.83046 6.68027 5.26359 6.24714 5.79671 5.9755C6.4028 5.66669 7.19679 5.66669 8.78361 5.66669H25.2169C26.8038 5.66669 27.5968 5.66669 28.2028 5.9755C28.736 6.24714 29.1698 6.68027 29.4415 7.2134C29.75 7.81889 29.75 8.61193 29.75 10.1956V23.8044C29.75 24.4915 29.75 25.0296 29.7248 25.468M4.25007 24.0835C4.25116 25.4836 4.26894 26.2166 4.55881 26.7855C4.83046 27.3186 5.26359 27.7532 5.79671 28.0248C6.4022 28.3334 7.19524 28.3334 8.77896 28.3334H25.2217C26.8054 28.3334 27.5973 28.3334 28.2028 28.0248C28.736 27.7532 29.1698 27.3186 29.4415 26.7855C29.6161 26.4427 29.6919 26.0402 29.7248 25.468M4.25007 24.0835L11.0046 16.2031L11.0066 16.201C11.6057 15.502 11.9058 15.152 12.2616 15.0258C12.5742 14.915 12.9156 14.9176 13.2266 15.0327C13.5811 15.164 13.8763 15.518 14.4669 16.2267L18.251 20.7676C18.7977 21.4236 19.0726 21.7535 19.4064 21.8859C19.7008 22.0027 20.0255 22.0159 20.3293 21.9262C20.6751 21.8242 20.9795 21.5198 21.5883 20.9111L22.2924 20.2069C22.9122 19.5871 23.2221 19.2774 23.5729 19.1762C23.8809 19.0873 24.2103 19.1064 24.5067 19.2288C24.8441 19.3681 25.1178 19.7092 25.6653 20.3937L29.7248 25.468M29.7248 25.468L29.75 25.4995M21.25 14.1667C20.4676 14.1667 19.8333 13.5324 19.8333 12.75C19.8333 11.9676 20.4676 11.3334 21.25 11.3334C22.0324 11.3334 22.6667 11.9676 22.6667 12.75C22.6667 13.5324 22.0324 14.1667 21.25 14.1667Z" stroke="#2C2D2E" stroke-width="2" stroke-linecap="round" stroke-linejoin="round"/>
</svg>
