<svg width="550" height="550" viewBox="0 0 550 550" fill="none" xmlns="http://www.w3.org/2000/svg">
<mask id="path-1-inside-1_1103_158" fill="white">
<path d="M0 0C0 72.227 14.2262 143.747 41.8662 210.476C69.5063 277.205 110.019 337.837 161.091 388.909C212.164 439.981 272.795 480.494 339.524 508.134C406.253 535.774 477.773 550 550 550V330C506.664 330 463.752 321.464 423.714 304.88C383.677 288.296 347.298 263.989 316.655 233.345C286.011 202.702 261.704 166.323 245.12 126.286C228.536 86.2481 220 43.3362 220 0H0Z"/>
</mask>
<path d="M0 0C0 72.227 14.2262 143.747 41.8662 210.476C69.5063 277.205 110.019 337.837 161.091 388.909C212.164 439.981 272.795 480.494 339.524 508.134C406.253 535.774 477.773 550 550 550V330C506.664 330 463.752 321.464 423.714 304.88C383.677 288.296 347.298 263.989 316.655 233.345C286.011 202.702 261.704 166.323 245.12 126.286C228.536 86.2481 220 43.3362 220 0H0Z" stroke="#96CDFA" stroke-width="400" mask="url(#path-1-inside-1_1103_158)"/>
</svg>
