<svg width="34" height="34" viewBox="0 0 34 34" fill="none" xmlns="http://www.w3.org/2000/svg">
<path d="M8.50002 8.5V25.2167C8.50002 26.8035 8.50002 27.5963 8.80884 28.2024C9.08048 28.7355 9.51361 29.1698 10.0467 29.4415C10.6522 29.75 11.4453 29.75 13.029 29.75H20.9711C22.5548 29.75 23.3467 29.75 23.9522 29.4415C24.4853 29.1698 24.9199 28.7355 25.1915 28.2024C25.5 27.5969 25.5 26.8048 25.5 25.221V8.5M8.50002 8.5H11.3334M8.50002 8.5H5.66669M11.3334 8.5H22.6667M11.3334 8.5C11.3334 7.17983 11.3334 6.52007 11.549 5.99939C11.8366 5.30514 12.3878 4.75324 13.0821 4.46567C13.6027 4.25 14.2632 4.25 15.5834 4.25H18.4167C19.7369 4.25 20.3969 4.25 20.9176 4.46567C21.6119 4.75324 22.1633 5.30514 22.4509 5.99939C22.6665 6.52007 22.6667 7.17984 22.6667 8.5M22.6667 8.5H25.5M25.5 8.5H28.3334" stroke="#2C2D2E" stroke-width="2" stroke-linecap="round" stroke-linejoin="round"/>
</svg>
