<svg width="34" height="34" viewBox="0 0 34 34" fill="none" xmlns="http://www.w3.org/2000/svg">
<path d="M24.3902 27.3874C22.5745 25.3595 19.9363 24.0833 17 24.0833C14.0637 24.0833 11.4253 25.3595 9.60954 27.3874M17 29.75C9.95837 29.75 4.25 24.0416 4.25 17C4.25 9.95837 9.95837 4.25 17 4.25C24.0416 4.25 29.75 9.95837 29.75 17C29.75 24.0416 24.0416 29.75 17 29.75ZM17 19.8333C14.6528 19.8333 12.75 17.9305 12.75 15.5833C12.75 13.2361 14.6528 11.3333 17 11.3333C19.3472 11.3333 21.25 13.2361 21.25 15.5833C21.25 17.9305 19.3472 19.8333 17 19.8333Z" stroke="#2C2D2E" stroke-width="2" stroke-linecap="round" stroke-linejoin="round"/>
</svg>
