<svg width="83" height="56" viewBox="0 0 83 56" fill="none" xmlns="http://www.w3.org/2000/svg">
<path d="M27.034 12.5073C29.2515 13.0698 33.0509 14.8377 34.264 15.8713L34.9623 16.4665L33.02 20.5594C30.4871 25.8964 27.8453 31.4305 26.1296 34.9932C24.6669 38.0309 23.9815 38.8403 22.4886 39.2938C19.6556 40.1543 16.5679 37.5081 17.0249 34.6113C17.105 34.1033 18.572 30.7735 20.2847 27.2115C21.9977 23.6497 23.399 20.682 23.399 20.6167C23.399 20.5515 22.3348 20.5508 21.0343 20.6151C18.2539 20.7528 16.6724 21.2756 14.3536 22.8236C11.809 24.5223 10.0969 26.8097 9.04675 29.9147C8.2905 32.1506 8.33018 35.9355 9.13372 38.2175C10.9249 43.3044 14.7979 46.4621 20.2121 47.2493C21.8307 47.4846 22.4081 47.4704 23.9102 47.1579C28.5153 46.1999 31.7073 43.6602 33.8238 39.27C36.4443 33.8339 39.4559 27.1799 40.3727 24.8002C42.6436 18.9071 43.6328 17.7528 46.4139 17.7528C47.6454 17.7528 47.9396 17.8471 48.8121 18.5218C49.5141 19.0645 49.9319 19.6321 50.2332 20.4514C50.7521 21.8631 50.6404 22.8026 49.7135 24.8208C49.3423 25.6286 48.1345 28.3945 47.0292 30.9672C41.4252 44.0126 39.9273 46.7991 36.9399 49.7348C32.6089 53.9907 27.6652 55.9944 21.5534 55.9706C18.2142 55.9577 16.2387 55.5732 13.3191 54.3678C7.09592 51.7983 2.46638 46.4466 0.498717 39.5481C0.0569205 37.9993 -0.0120639 37.2144 0.00154756 33.8907C0.0156205 30.3984 0.0758343 29.8366 0.63552 27.9777C2.94947 20.2902 8.57795 14.6294 15.9436 12.5808C19.5601 11.5749 23.262 11.5503 27.034 12.5073Z" fill="#197CCD"/>
<path d="M50.188 0.321167C53.5692 0.921308 57.1568 2.41067 59.7347 4.2843C61.5282 5.58772 64.2616 8.45909 65.3957 10.2314C66.342 11.71 66.5275 11.8733 67.694 12.2524C72.1281 13.6943 76.5647 17.0477 79.1518 20.9131C81.8439 24.9351 82.961 28.5675 82.9986 33.4229C83.0269 37.0794 82.6437 39.1523 81.3684 42.2412C78.5248 49.1279 73.0257 53.7529 65.5023 55.5853C63.004 56.1939 58.4504 56.1233 55.8128 55.435C53.5351 54.8407 50.4342 53.4732 48.7062 52.3007C47.7746 51.6688 47.6157 51.4555 47.7098 50.9641C47.7714 50.6425 48.7228 48.3797 49.8242 45.9356C50.9253 43.4916 52.8462 39.1895 54.0924 36.3757C55.3431 33.5523 56.6417 30.9599 56.99 30.5911C59.029 28.4338 62.7848 29.1113 64.0154 31.8587C64.8446 33.7101 64.8937 33.5319 61.2571 41.8427C60.1031 44.4797 59.1589 46.7839 59.1584 46.9633C59.158 47.2262 59.4789 47.2589 60.8206 47.1324C66.0232 46.6424 69.6081 44.6324 72.0459 40.8391C73.6059 38.4116 73.9933 37.0235 74.0175 33.7738C74.0351 31.4036 73.9546 30.7211 73.4991 29.3847C72.3892 26.1265 69.7188 23.0928 66.6692 21.6259C64.6148 20.6375 63.4319 20.3389 61.5411 20.3312L60.1179 20.3255L59.7213 19.0977C58.7648 16.1358 57.1116 13.666 54.9643 11.9907C50.1869 8.2638 43.3952 8.14054 38.517 11.692L37.498 12.4339L36.5678 11.6869C35.6057 10.9144 30.4262 8.17375 29.9163 8.16744C29.3181 8.15972 29.6736 7.56589 31.0699 6.24072C36.2328 1.34043 43.4109 -0.882155 50.188 0.321167Z" fill="#197CCD"/>
</svg>
